<svg width="63" height="60" viewBox="0 0 63 60" fill="none" xmlns="http://www.w3.org/2000/svg">
<path d="M31.6541 0C14.6537 0 0.87207 13.4314 0.87207 30C0.87207 46.5686 14.6537 60 31.6541 60C48.6544 60 62.4361 46.5685 62.4361 30C62.4361 13.4315 48.6545 0 31.6541 0ZM47.8032 14.2611C55.9266 22.1782 56.4916 34.279 50.3696 42.7656L18.5556 11.76C27.2694 5.78952 39.6842 6.34851 47.8032 14.2611ZM15.5049 45.7389C7.38147 37.8218 6.81647 25.721 12.9385 17.2344L44.7525 48.24C36.0389 54.2105 23.6239 53.6516 15.5049 45.7389Z" fill="white"/>
</svg>
