<svg width="72" height="67" viewBox="0 0 72 67" fill="none" xmlns="http://www.w3.org/2000/svg">
<path d="M69.7405 14.6474L56.2595 2.10257C54.8128 0.756328 52.8506 9.95543e-06 50.8047 0H7.71429C3.45375 0 0 3.21391 0 7.17857V59.8214C0 63.7861 3.45375 67 7.71429 67H64.2857C68.5462 67 72 63.7861 72 59.8214V19.7234C72 17.8196 71.1872 15.9937 69.7405 14.6474ZM36 57.4286C30.3194 57.4286 25.7143 53.1433 25.7143 47.8571C25.7143 42.571 30.3194 38.2857 36 38.2857C41.6806 38.2857 46.2857 42.571 46.2857 47.8571C46.2857 53.1433 41.6806 57.4286 36 57.4286ZM51.4286 11.8865V26.9196C51.4286 27.9107 50.5651 28.7143 49.5 28.7143H12.2143C11.1492 28.7143 10.2857 27.9107 10.2857 26.9196V11.3661C10.2857 10.375 11.1492 9.57143 12.2143 9.57143H48.9407C49.4523 9.57143 49.9428 9.76046 50.3044 10.0971L50.8637 10.6176C51.0428 10.7842 51.1849 10.982 51.2818 11.1997C51.3787 11.4175 51.4286 11.6508 51.4286 11.8865Z" fill="white"/>
</svg>
