<svg width="70" height="70" viewBox="0 0 93 94" fill="none" xmlns="http://www.w3.org/2000/svg">
<path d="M73.5827 78.1251H19.9017C18.8848 78.1251 17.9095 78.5366 17.1904 79.2692C16.4714 80.0017 16.0674 80.9953 16.0674 82.0313C16.0674 83.0673 16.4714 84.0609 17.1904 84.7935C17.9095 85.526 18.8848 85.9376 19.9017 85.9376H73.5827C74.5997 85.9376 75.5749 85.526 76.294 84.7935C77.0131 84.0609 77.4171 83.0673 77.4171 82.0313C77.4171 80.9953 77.0131 80.0017 76.294 79.2692C75.5749 78.5366 74.5997 78.1251 73.5827 78.1251Z" fill="#D9D9D9"/>
<path d="M19.9032 70.3125H20.2483L36.2376 68.8281C37.9891 68.6504 39.6273 67.8642 40.8771 66.6016L75.3863 31.4453C76.7257 30.0038 77.4496 28.0801 77.3993 26.0959C77.349 24.1116 76.5286 22.2286 75.1179 20.8594L64.6118 10.1563C63.2406 8.84415 61.4438 8.09127 59.5632 8.04085C57.6826 7.99044 55.8494 8.646 54.4124 9.88284L19.9032 45.0391C18.6638 46.3124 17.8921 47.9813 17.7176 49.7656L16.0688 66.0547C16.0172 66.6268 16.0901 67.2035 16.2823 67.7437C16.4745 68.2839 16.7813 68.7742 17.1808 69.1797C17.5391 69.5417 17.964 69.8282 18.4312 70.0226C18.8983 70.217 19.3986 70.3155 19.9032 70.3125V70.3125ZM59.282 15.625L69.7498 26.2891L62.0811 33.9063L51.805 23.4375L59.282 15.625ZM25.1563 50.4297L46.7437 28.5938L57.0965 39.1406L35.6241 61.0156L24.121 62.1094L25.1563 50.4297Z" fill="#D9D9D9"/>
</svg>
