<svg width="84" height="43" viewBox="0 0 84 43" fill="none" xmlns="http://www.w3.org/2000/svg">
<path d="M46.036 25.0833H43.9582V15.2292C43.9582 14.7342 43.4933 14.3333 42.9193 14.3333H41.1558C40.5402 14.3333 39.939 14.4901 39.4273 14.7846L37.4365 15.929C37.323 15.9942 37.2255 16.0781 37.1495 16.1758C37.0736 16.2735 37.0207 16.3831 36.9939 16.4984C36.9672 16.6138 36.967 16.7325 36.9935 16.8479C37.02 16.9633 37.0725 17.073 37.1482 17.1709L38.3014 18.6613C38.377 18.7592 38.4742 18.8433 38.5875 18.9088C38.7008 18.9743 38.828 19.0199 38.9617 19.043C39.0955 19.0661 39.2332 19.0662 39.367 19.0434C39.5008 19.0205 39.6281 18.9752 39.7416 18.9099L39.8026 18.8752V25.0833H37.7248C37.1508 25.0833 36.6859 25.4842 36.6859 25.9792V27.7708C36.6859 28.2658 37.1508 28.6667 37.7248 28.6667H46.036C46.61 28.6667 47.0749 28.2658 47.0749 27.7708V25.9792C47.0749 25.4842 46.61 25.0833 46.036 25.0833ZM79.2805 0H4.48028C2.18562 0 0.324707 1.60466 0.324707 3.58333V39.4167C0.324707 41.3953 2.18562 43 4.48028 43H79.2805C81.5752 43 83.4361 41.3953 83.4361 39.4167V3.58333C83.4361 1.60466 81.5752 0 79.2805 0ZM6.55806 37.625V30.4583C11.1487 30.4583 14.8692 33.6665 14.8692 37.625H6.55806ZM6.55806 12.5417V5.375H14.8692C14.8692 9.33346 11.1487 12.5417 6.55806 12.5417ZM41.8804 34.0417C34.9951 34.0417 29.4137 28.4259 29.4137 21.5C29.4137 14.573 34.9951 8.95833 41.8804 8.95833C48.7657 8.95833 54.3471 14.573 54.3471 21.5C54.3471 28.4282 48.7631 34.0417 41.8804 34.0417ZM77.2027 37.625H68.8916C68.8916 33.6665 72.6121 30.4583 77.2027 30.4583V37.625ZM77.2027 12.5417C72.6121 12.5417 68.8916 9.33346 68.8916 5.375H77.2027V12.5417Z" fill="white"/>
</svg>
