<svg width="70" height="70" viewBox="0 0 102 102" fill="none" xmlns="http://www.w3.org/2000/svg">
<path d="M29.8254 25.9583C30.9396 25.9583 32.0083 25.5157 32.7962 24.7278C33.5841 23.9399 34.0267 22.8712 34.0267 21.757C34.0267 20.6427 33.5841 19.574 32.7962 18.7861C32.0083 17.9982 30.9396 17.5556 29.8254 17.5556H21.4226C20.3083 17.5556 19.2397 17.9982 18.4518 18.7861C17.6638 19.574 17.2212 20.6427 17.2212 21.757V80.5764C17.2212 81.6907 17.6638 82.7593 18.4518 83.5472C19.2397 84.3351 20.3083 84.7778 21.4226 84.7778H29.8254C30.9396 84.7778 32.0083 84.3351 32.7962 83.5472C33.5841 82.7593 34.0267 81.6907 34.0267 80.5764C34.0267 79.4621 33.5841 78.3935 32.7962 77.6056C32.0083 76.8177 30.9396 76.375 29.8254 76.375H25.624V25.9583H29.8254Z" fill="#231F20"/>
<path d="M87.8889 48.7299L76.041 31.9243C75.3985 31.0185 74.4235 30.404 73.3291 30.2151C72.2348 30.0261 71.1102 30.2781 70.2011 30.916C69.7467 31.2344 69.3599 31.6396 69.063 32.1084C68.766 32.5771 68.5649 33.0999 68.4711 33.6468C68.3774 34.1937 68.3929 34.7537 68.5167 35.2945C68.6406 35.8354 68.8704 36.3463 69.1928 36.7979L76.4191 46.9653H76.041H42.4299C41.3156 46.9653 40.247 47.4079 39.4591 48.1958C38.6712 48.9838 38.2285 50.0524 38.2285 51.1667C38.2285 52.2809 38.6712 53.3496 39.4591 54.1375C40.247 54.9254 41.3156 55.3681 42.4299 55.3681H76.041L68.4785 65.4514C68.1475 65.8928 67.9066 66.395 67.7697 66.9295C67.6328 67.464 67.6024 68.0202 67.6805 68.5664C67.7585 69.1126 67.9433 69.638 68.2244 70.1128C68.5055 70.5876 68.8774 71.0023 69.3188 71.3333C70.046 71.8788 70.9306 72.1736 71.8396 72.1736C72.4919 72.1736 73.1352 72.0217 73.7185 71.7301C74.3019 71.4384 74.8094 71.0149 75.2007 70.4931L87.8049 53.6875C88.343 52.9769 88.6411 52.1136 88.6562 51.2224C88.6713 50.3312 88.4026 49.4583 87.8889 48.7299V48.7299Z" fill="#231F20"/>
</svg>
