<svg width="52" height="50" viewBox="0 0 52 50" fill="none" xmlns="http://www.w3.org/2000/svg">
<path d="M48.0725 19.6429H31.5822V3.57143C31.5822 1.59933 29.9411 0 27.9176 0H24.2531C22.2296 0 20.5886 1.59933 20.5886 3.57143V19.6429H4.09824C2.07473 19.6429 0.433716 21.2422 0.433716 23.2143V26.7857C0.433716 28.7578 2.07473 30.3571 4.09824 30.3571H20.5886V46.4286C20.5886 48.4007 22.2296 50 24.2531 50H27.9176C29.9411 50 31.5822 48.4007 31.5822 46.4286V30.3571H48.0725C50.096 30.3571 51.737 28.7578 51.737 26.7857V23.2143C51.737 21.2422 50.096 19.6429 48.0725 19.6429Z" fill="white"/>
</svg>
