<svg width="70" height="70" viewBox="0 0 93 94" fill="none" xmlns="http://www.w3.org/2000/svg">
<path d="M80.8459 23.5625H61.6741V17.039C61.5842 14.5383 60.5246 12.176 58.7277 10.4699C56.9308 8.76376 54.5432 7.85308 52.0883 7.93748H40.5852C38.1303 7.85308 35.7426 8.76376 33.9457 10.4699C32.1488 12.176 31.0893 14.5383 30.9993 17.039V23.5625H11.8275C10.8106 23.5625 9.8353 23.974 9.11622 24.7066C8.39714 25.4392 7.99316 26.4327 7.99316 27.4687C7.99316 28.5047 8.39714 29.4983 9.11622 30.2309C9.8353 30.9634 10.8106 31.375 11.8275 31.375H15.6619V74.3437C15.6619 77.4517 16.8738 80.4324 19.031 82.6301C21.1883 84.8278 24.1141 86.0625 27.1649 86.0625H65.5085C68.5593 86.0625 71.4852 84.8278 73.6424 82.6301C75.7996 80.4324 77.0116 77.4517 77.0116 74.3437V31.375H80.8459C81.8629 31.375 82.8381 30.9634 83.5572 30.2309C84.2763 29.4983 84.6803 28.5047 84.6803 27.4687C84.6803 26.4327 84.2763 25.4392 83.5572 24.7066C82.8381 23.974 81.8629 23.5625 80.8459 23.5625ZM38.668 62.625C38.668 63.661 38.264 64.6545 37.545 65.3871C36.8259 66.1197 35.8506 66.5312 34.8337 66.5312C33.8167 66.5312 32.8414 66.1197 32.1224 65.3871C31.4033 64.6545 30.9993 63.661 30.9993 62.625V47C30.9993 45.964 31.4033 44.9704 32.1224 44.2378C32.8414 43.5053 33.8167 43.0937 34.8337 43.0937C35.8506 43.0937 36.8259 43.5053 37.545 44.2378C38.264 44.9704 38.668 45.964 38.668 47V62.625ZM38.668 17.039C38.668 16.414 39.4732 15.75 40.5852 15.75H52.0883C53.2002 15.75 54.0054 16.414 54.0054 17.039V23.5625H38.668V17.039ZM61.6741 62.625C61.6741 63.661 61.2702 64.6545 60.5511 65.3871C59.832 66.1197 58.8567 66.5312 57.8398 66.5312C56.8229 66.5312 55.8476 66.1197 55.1285 65.3871C54.4094 64.6545 54.0054 63.661 54.0054 62.625V47C54.0054 45.964 54.4094 44.9704 55.1285 44.2378C55.8476 43.5053 56.8229 43.0937 57.8398 43.0937C58.8567 43.0937 59.832 43.5053 60.5511 44.2378C61.2702 44.9704 61.6741 45.964 61.6741 47V62.625Z" fill="#D9D9D9"/>
</svg>
